<svg width="202" height="73" viewBox="0 0 202 73" fill="none" xmlns="http://www.w3.org/2000/svg">
<path d="M13.5132 59.6949H16.1714C18.0255 59.6949 19.577 61.1801 19.577 63.1005C19.577 65.0208 18.035 66.506 16.1714 66.506H13.5132V59.6949ZM14.7714 65.2479H16.1714C17.3539 65.2479 18.3188 64.2829 18.3188 63.1005C18.3188 61.918 17.3539 60.9531 16.1714 60.9531H14.7714V65.2479ZM28.3731 66.506H27.0109L26.3393 64.7654H23.7473L23.0756 66.506H21.7134L24.3622 59.6949H25.7338L28.3731 66.506ZM24.4378 62.9869L24.2014 63.6018H25.8852L25.6487 62.9869C25.4217 62.4004 25.2419 61.8991 25.0433 61.3504H25.0338C24.8541 61.8991 24.6743 62.4004 24.4378 62.9869ZM35.2456 59.6949V60.9531H33.1928V66.506H31.9346V60.9531H29.8913V59.6949H35.2456ZM43.4259 66.506H42.0637L41.392 64.7654H38.8L38.1284 66.506H36.7662L39.4149 59.6949H40.7866L43.4259 66.506ZM39.4906 62.9869L39.2541 63.6018H40.938L40.7015 62.9869C40.4744 62.4004 40.2947 61.8991 40.096 61.3504H40.0866C39.9068 61.8991 39.7271 62.4004 39.4906 62.9869ZM88.9352 66.506H87.573L86.9014 64.7654H84.3094L83.6377 66.506H82.2755L84.9243 59.6949H86.296L88.9352 66.506ZM85 62.9869L84.7635 63.6018H86.4473L86.2108 62.9869C85.9838 62.4004 85.804 61.8991 85.6054 61.3504H85.5959C85.4162 61.8991 85.2364 62.4004 85 62.9869ZM91.7887 59.6949H93.0468V66.506H91.7887V59.6949ZM101.023 64.1221H102.291C102.3 64.9073 102.802 65.3519 103.549 65.3519C104.23 65.3519 104.561 64.9357 104.561 64.5289C104.561 64.1316 104.268 63.8289 103.766 63.7059L102.972 63.5072C101.865 63.2329 101.212 62.514 101.212 61.5963C101.212 60.4422 102.272 59.6382 103.483 59.6382C104.807 59.6382 105.639 60.6504 105.639 61.8234H104.4C104.4 61.2558 104.003 60.8396 103.426 60.8396C102.839 60.8396 102.508 61.2369 102.508 61.6058C102.508 61.8801 102.66 62.1639 103.17 62.2964L103.946 62.495C105.223 62.8167 105.857 63.4599 105.857 64.51C105.857 65.7208 104.902 66.5628 103.549 66.5628C102.177 66.5628 101.033 65.6357 101.023 64.1221ZM114.646 66.506H113.104L111.004 63.5735L110.143 64.5667V66.506H108.885V59.6949H110.143V62.8261L112.858 59.6949H114.485L111.903 62.6748L114.646 66.506ZM117.635 59.6949H118.894V66.506H117.635V59.6949ZM123.625 59.6949V65.2479H126.558V66.506H122.367V59.6949H123.625ZM130.759 59.6949V65.2479H133.692V66.506H129.501V59.6949H130.759ZM136.313 64.1221H137.581C137.59 64.9073 138.092 65.3519 138.839 65.3519C139.52 65.3519 139.851 64.9357 139.851 64.5289C139.851 64.1316 139.558 63.8289 139.056 63.7059L138.262 63.5072C137.155 63.2329 136.502 62.514 136.502 61.5963C136.502 60.4422 137.562 59.6382 138.773 59.6382C140.097 59.6382 140.93 60.6504 140.93 61.8234H139.69C139.69 61.2558 139.293 60.8396 138.716 60.8396C138.129 60.8396 137.798 61.2369 137.798 61.6058C137.798 61.8801 137.95 62.1639 138.461 62.2964L139.236 62.495C140.513 62.8167 141.147 63.4599 141.147 64.51C141.147 65.7208 140.192 66.5628 138.839 66.5628C137.467 66.5628 136.323 65.6357 136.313 64.1221Z" fill="#65FF8F"/>
<path d="M56.9407 66.506H55.8717L55.1339 64.6424H52.277L51.5391 66.506H50.4796L53.1568 59.6949H54.2541L56.9407 66.506ZM53.1 62.5423L52.6365 63.7154H54.7744L54.3109 62.5423C54.0933 61.9937 53.9136 61.5207 53.7149 60.972H53.7054C53.4973 61.5207 53.3176 61.9937 53.1 62.5423ZM64.4622 63.7721V59.6949H65.4461V66.506H64.3582L61.5959 62.4288C61.35 62.0599 61.1135 61.6815 60.8486 61.2274H60.8391V62.4288V66.506H59.8553V59.6949H60.9526L63.7055 63.7721C63.9609 64.1694 64.1879 64.5289 64.4528 64.983H64.4622V63.7721ZM69.0307 59.6949H71.5092C73.3065 59.6949 74.9147 61.095 74.9147 63.1005C74.9147 65.106 73.3065 66.506 71.5092 66.506H69.0307V59.6949ZM70.0145 65.5222H71.5092C72.843 65.5222 73.9309 64.4343 73.9309 63.1005C73.9309 61.7666 72.843 60.6787 71.5092 60.6787H70.0145V65.5222Z" fill="#65FF8F"/>
<path d="M18.1504 21.0393V22.3127H16.1387C15.0071 22.3127 14.0341 23.1143 13.8174 24.2249L4.77832 70.5872H157.661C158.385 71.0435 159.13 71.4696 159.896 71.8606H3.2334L12.5674 23.9817C12.9005 22.2729 14.3977 21.0393 16.1387 21.0393H18.1504ZM159.896 21.0393C159.13 21.4306 158.384 21.856 157.659 22.3127H28.7109V21.0393H159.896Z" fill="url(#paint0_linear_2016_42471)"/>
<path d="M25.0508 1.13666C25.9746 0.345719 27.3641 0.453503 28.1543 1.37787C28.1873 1.41654 28.2172 1.45776 28.2471 1.49799L37.4238 12.4267C38.2175 13.3497 38.1122 14.7403 37.1885 15.5331C36.2646 16.3261 34.8721 16.2208 34.0781 15.2978L28.8213 9.03705L21.3457 49.3193H33.375L33.2646 49.9579L32.3652 55.1562L32.2871 55.6093H13.8652L13.9756 54.9706L14.875 49.7724L14.876 49.7656L22.4053 9.1972L16.0947 14.6025C15.1708 15.3935 13.7814 15.2849 12.9912 14.3603C12.2012 13.4357 12.3096 12.0448 13.2334 11.2538L25.0508 1.13666ZM61.7988 27.0165L60.9004 32.2148L60.8223 32.6669H46.4775L45.5732 37.8681H58.4375L58.3203 38.5117L57.3818 43.6708L57.3008 44.1191H44.4453L43.541 49.3193H57.8838L57.7734 49.9579L56.875 55.1562L56.7969 55.6093H36.0283L36.1406 54.9697L41.0654 26.829L41.1445 26.3779H61.9102L61.7988 27.0165ZM81.8057 26.8095L87.7861 54.9501L87.9258 55.6093H81.2988L81.207 55.1767L79.7744 48.4179H69.8281L65.959 55.33L65.8027 55.6093H58.8027L59.2617 54.7949L75.1299 26.6552L75.2861 26.3779H81.7139L81.8057 26.8095ZM108.187 26.3779C112.596 26.3781 116.079 30.1859 116.079 35.0136C116.079 39.1289 113.217 42.8771 109.485 44.579L112.887 54.8925L113.123 55.6093H106.345L106.222 55.2333L103.062 45.6035H99.2256L97.5459 55.1581L97.4668 55.6093H91.082L91.1943 54.9697L96.1191 26.829L96.1982 26.3779H108.187ZM128.851 26.6992L135.534 41.5507L135.535 41.5536C136.075 42.7681 136.519 43.8729 136.986 45.1269L137.586 41.6816V41.6806L140.205 26.829L140.284 26.3779H146.59L146.479 27.0175L141.554 55.1572L141.475 55.6093H134.646L134.5 55.288L127.777 40.4365V40.4355C127.26 39.3465 126.764 38.1664 126.274 36.8847C126.068 38.0484 125.861 39.2649 125.686 40.2665V40.2675L123.067 55.1581L122.988 55.6093H116.682L116.794 54.9697L121.719 26.829L121.798 26.3779H128.706L128.851 26.6992ZM72.2051 43.0654H79.2012V43.0644H72.2061L72.2051 43.0654ZM77.0957 35.3828C76.1726 37.146 75.2482 38.8609 74.123 40.7988L74.1221 40.7978L73.1426 42.5195H78.5244L78.1201 40.6396L78.1191 40.6367C77.7255 38.7595 77.4032 37.0918 77.0957 35.3828ZM100.315 39.3535H105.919C106.874 39.3535 107.834 38.8806 108.564 38.1191C109.295 37.3579 109.751 36.3545 109.751 35.3652C109.751 33.8431 108.761 32.6669 107.287 32.6669H101.492L100.315 39.3535ZM126.918 37.0419C127.095 37.4978 127.273 37.9401 127.453 38.3691H127.454C127.274 37.9403 127.096 37.4985 126.919 37.0429L126.918 37.0419ZM110.144 36.4433C110.155 36.4019 110.164 36.36 110.175 36.3183C110.165 36.36 110.155 36.4019 110.144 36.4433ZM110.29 35.581C110.28 35.7648 110.254 35.9471 110.218 36.1279C110.268 35.8768 110.297 35.6223 110.297 35.3661V35.3652L110.29 35.581ZM115.526 34.664L115.525 34.6015C115.524 34.5669 115.519 34.5325 115.518 34.498C115.521 34.5532 115.524 34.6085 115.526 34.664ZM115.503 34.2675C115.499 34.2185 115.495 34.1697 115.49 34.121C115.495 34.1697 115.499 34.2185 115.503 34.2675Z" fill="white"/>
<circle cx="172.841" cy="46.4497" r="25.9156" fill="#65FF8F"/>
<path d="M185.659 54.7639C186.806 54.6339 187.628 53.6115 187.5 52.4813C187.372 51.3512 186.342 50.5385 185.195 50.6685C184.047 50.7985 183.231 51.8203 183.359 52.9505C183.487 54.0806 184.511 54.8939 185.659 54.7639ZM185.574 54.0198C184.841 54.1028 184.196 53.5866 184.114 52.8649C184.033 52.1432 184.546 51.4957 185.279 51.4126C186.012 51.3296 186.663 51.8452 186.744 52.5669C186.826 53.2886 186.307 53.9368 185.574 54.0198Z" fill="#05192D"/>
<path d="M187.917 50.3941L188.373 54.4223L189.129 54.3367L188.946 52.7198L190.775 52.5126L190.691 51.7741L188.862 51.9813L188.757 51.0526L190.79 50.8222L190.706 50.0781L187.917 50.3941Z" fill="#05192D"/>
<path d="M191.317 50.0088L191.774 54.037L192.529 53.9514L192.346 52.3345L194.175 52.1273L194.091 51.3888L192.262 51.596L192.157 50.6673L194.191 50.4369L194.106 49.6928L191.317 50.0088Z" fill="#05192D"/>
<path d="M184.136 40.7837C185.024 40.6832 185.768 40.1046 186.11 39.287C186.288 38.8773 186.345 38.4515 186.293 37.993C186.187 37.0613 185.636 36.2999 184.831 35.9418C184.436 35.7618 184.01 35.7053 183.567 35.7556C182.664 35.8578 181.919 36.4216 181.577 37.2392C181.398 37.6489 181.343 38.0895 181.395 38.5479C181.497 39.4501 182.048 40.2115 182.855 40.5844C183.25 40.7644 183.678 40.8357 184.136 40.7837ZM183.999 39.5711C183.289 39.6515 182.691 39.1351 182.608 38.4105C182.526 37.6858 182.994 37.0487 183.704 36.9682C184.399 36.8894 184.997 37.4059 185.079 38.1305C185.162 38.8552 184.694 39.4923 183.999 39.5711ZM191.328 45.6608C192.23 45.5586 192.976 44.9948 193.318 44.1772C193.496 43.7675 193.551 43.3269 193.499 42.8684C193.397 41.9663 192.846 41.2049 192.039 40.8319C191.644 40.652 191.217 40.5807 190.758 40.6326C189.87 40.7332 189.141 41.3101 188.785 42.1294C188.606 42.5391 188.535 42.9666 188.587 43.425C188.692 44.3567 189.256 45.1017 190.061 45.4598C190.456 45.6398 190.884 45.7111 191.328 45.6608ZM191.19 44.4481C190.495 44.5269 189.897 44.0105 189.815 43.2859C189.733 42.5612 190.2 41.9241 190.895 41.8453C191.606 41.7648 192.204 42.2813 192.286 43.0059C192.368 43.7306 191.9 44.3677 191.19 44.4481ZM189.515 35.0816L183.974 46.494L185.454 46.3264L190.994 34.914L189.515 35.0816Z" fill="#05192D"/>
<path d="M158.809 44.6814C157.171 44.8537 156.09 45.6733 155.55 46.2187L155.651 42.2716L163.357 41.4609L162.993 37.9971L152.359 39.1156L152.175 49.2343L155.449 49.65C155.683 49.0282 156.673 47.8652 158.311 47.6929C160.191 47.4952 161.695 48.8845 161.884 50.6836C162.079 52.5363 160.754 54.1417 158.955 54.3309C157.398 54.4947 155.756 53.3372 155.544 51.8391L151.946 52.2176C152.329 55.5981 155.603 58.0772 159.308 57.6874C163.148 57.2835 165.841 54.2311 165.445 50.4718C165.067 46.8737 162.219 44.3226 158.809 44.6814Z" fill="#05192D"/>
<path d="M166.594 47.1745C167.171 52.6523 170.186 56.5431 175.208 56.0149C180.202 55.4896 182.342 51.0564 181.766 45.5787C181.189 40.1009 178.177 36.237 173.182 36.7623C168.161 37.2905 166.018 41.6968 166.594 47.1745ZM170.139 46.8017C169.769 43.2841 170.724 40.4959 173.544 40.1993C176.363 39.9027 177.824 42.4368 178.194 45.9543C178.564 49.4719 177.665 52.2813 174.846 52.5779C172.027 52.8745 170.509 50.3193 170.139 46.8017Z" fill="#05192D"/>
<defs>
<linearGradient id="paint0_linear_2016_42471" x1="27.2782" y1="27.024" x2="146.396" y2="67.905" gradientUnits="userSpaceOnUse">
<stop stop-color="#974DFF"/>
<stop offset="1" stop-color="#65FF8F"/>
</linearGradient>
</defs>
</svg>
